HIERARCHY
ROOT hip
{
	OFFSET	0.0	0.0	0.0
	CHANNELS 6 Xposition Yposition Zposition Xrotation Zrotation Yrotation
	JOINT mTorso
	{
		OFFSET	0.0	3.309947	0.0
		CHANNELS 6 Xposition Yposition Zposition Zrotation Xrotation Yrotation
		JOINT mChest
		{
			OFFSET	0.000001	8.066009	-0.605039
			CHANNELS 6 Xposition Yposition Zposition Zrotation Xrotation Yrotation
			JOINT mNeck
			{
				OFFSET	0.0	9.885960	-0.374253
				CHANNELS 6 Xposition Yposition Zposition Zrotation Xrotation Yrotation
				JOINT mHead
				{
					OFFSET	0.0	2.977550	-0.000001
					CHANNELS 6 Xposition Yposition Zposition Zrotation Xrotation Yrotation
					JOINT mSkull
					{
						OFFSET	0.0	3.110228	0.0
						CHANNELS 6 Xposition Yposition Zposition Zrotation Xrotation Yrotation
					}
					JOINT mEyeRight
					{
						OFFSET	-1.41732	3.110228	3.876606
						CHANNELS 6 Xposition Yposition Zposition Zrotation Xrotation Yrotation
					}
					JOINT mEyeLeft
					{
						OFFSET	1.41732	3.110228	3.876409
						CHANNELS 6 Xposition Yposition Zposition Zrotation Xrotation Yrotation
					}
				}
			}
			JOINT mCollarLeft
			{
				OFFSET	3.333260	6.511634	-0.823896
				CHANNELS 6 Xposition Yposition Zposition Zrotation Xrotation Yrotation
				JOINT mShoulderLeft
				{
					OFFSET	3.110223	-0.000135	0.000214
					CHANNELS 6 Xposition Yposition Zposition Zrotation Xrotation Yrotation
					JOINT mElbowLeft
					{
						OFFSET	9.763742	0.000216	-0.000379
						CHANNELS 6 Xposition Yposition Zposition Zrotation Xrotation Yrotation
						JOINT mWristLeft
						{
							OFFSET	8.070838	0.0	0.000016
							CHANNELS 6 Xposition Yposition Zposition Zrotation Xrotation Yrotation
						}
					}
				}
			}
			JOINT mCollarRight
			{
				OFFSET	-3.346448	6.511634	-0.823896
				CHANNELS 6 Xposition Yposition Zposition Zrotation Xrotation Yrotation
				JOINT mShoulderRight
				{
					OFFSET	-3.126682	-0.000132	0.000215
					CHANNELS 6 Xposition Yposition Zposition Zrotation Xrotation Yrotation
					JOINT mElbowRight
					{
						OFFSET	-9.763741	0.000214	-0.000385
						CHANNELS 6 Xposition Yposition Zposition Zrotation Xrotation Yrotation
						JOINT mWristRight
						{
							OFFSET	-8.070854	0.0	0.000011
							CHANNELS 6 Xposition Yposition Zposition Zrotation Xrotation Yrotation
						}
					}
				}
			}
		}
	}
	JOINT mHipRight
	{
		OFFSET	-5.071084	-1.617542	1.323629
		CHANNELS 6 Xposition Yposition Zposition Zrotation Xrotation Yrotation
		JOINT mKneeRight
		{
			OFFSET	1.914753	-19.327555	-0.031846
			CHANNELS 6 Xposition Yposition Zposition Zrotation Xrotation Yrotation
			JOINT mAnkleRight
			{
				OFFSET	0.000010	-18.444631	-1.136083
				CHANNELS 6 Xposition Yposition Zposition Zrotation Xrotation Yrotation
				JOINT mFootRight
				{
					OFFSET	0.0	-2.387278	4.407708
					CHANNELS 6 Xposition Yposition Zposition Zrotation Xrotation Yrotation
					JOINT mToeRight
					{
						OFFSET	-0.409762	-0.004094	4.149558
						CHANNELS 6 Xposition Yposition Zposition Zrotation Xrotation Yrotation
					}
				}
			}
		}
	}
	JOINT mHipLeft
	{
		OFFSET	4.990727	-1.614106	1.328996
		CHANNELS 6 Xposition Yposition Zposition Zrotation Xrotation Yrotation
		JOINT mKneeLeft
		{
			OFFSET	-1.794002	-19.332734	-0.035613
			CHANNELS 6 Xposition Yposition Zposition Zrotation Xrotation Yrotation
			JOINT mAnkleLeft
			{
				OFFSET	0.054250	-18.442832	-1.137005
				CHANNELS 6 Xposition Yposition Zposition Zrotation Xrotation Yrotation
				JOINT mFootLeft
				{
					OFFSET	0.000003	-2.386608	4.407706
					CHANNELS 6 Xposition Yposition Zposition Zrotation Xrotation Yrotation
					JOINT mToeLeft
					{
						OFFSET	0.325589	0.034291	4.149086
						CHANNELS 6 Xposition Yposition Zposition Zrotation Xrotation Yrotation
					}
				}
			}
		}
	}
}
MOTION
Frames:	4
Frame Time: 0.033333
0.0 42.008304 0.0 0.0 0.0 0.0 0.0 3.309947 0.0 0.0 0.0 0.0 0.000001 8.066009 -0.605039 0.0 0.0 0.0 0.0 9.885959 -0.374285 0.0 -0.000187 0.0 0.0 2.977550 -0.000001 0.0 0.0 0.000001 0.0 3.110228 0.0 0.0 0.0 0.000001 -1.41732 3.110228 3.876606 0.0 0.0 0.000001 1.41732 3.110228 3.876409 0.0 0.0 0.000001 3.333260 6.511634 -0.823896 0.0 -0.000001 0.0 3.110223 -0.000003 0.0 0.002421 0.001335 0.003943 9.763742 -0.000195 0.000323 -0.002417 -0.001338 -0.004129 8.070838 0.0 -0.000011 0.0 0.0 0.000198 -3.346448 6.511634 -0.823896 0.0 -0.000001 0.0 -3.126682 0.0 0.0 -0.002421 0.001353 -0.003959 -9.763741 -0.000198 0.000327 0.002428 -0.001360 0.004183 -8.070854 0.0 -0.000017 0.0 0.0 -0.000210 -5.071083 -1.617557 1.323616 0.0 0.000659 0.000065 1.914753 -19.327556 -0.030971 0.0 -0.002594 0.0 0.000002 -18.444593 -1.136705 -0.000027 0.001934 -0.000050 0.0 -2.387278 4.407708 0.0 0.0 0.0 -0.409762 -0.004094 4.149558 0.0 0.0 0.0 4.990729 -1.614089 1.329010 0.0 -0.000724 0.000067 -1.794004 -19.332734 -0.035440 -0.000006 -0.000520 -0.000109 0.054250 -18.442808 -1.137406 0.0 0.001246 0.0 0.000003 -2.386608 4.407706 0.0 0.0 0.0 0.325589 0.034291 4.149086 0.0 0.0 0.0 
-0.022857 41.990806 0.014766 0.211536 0.327429 0.150317 0.0 3.309952 0.0 0.012583 0.008568 0.007106 0.0 8.066009 -0.605038 0.043778 0.035936 0.064051 0.0 9.885962 -0.374290 0.0 -0.000100 0.0 0.000001 2.977551 -0.000001 0.0 0.0 0.000001 0.0 3.110228 0.0 0.0 0.0 0.000001 -1.417320 3.110228 3.876606 0.0 0.0 0.000001 1.417319 3.110228 3.876409 0.0 0.0 0.000001 3.333262 6.511638 -0.823896 0.0 -0.000001 0.0 3.110226 0.000001 0.0 -0.031876 0.020602 0.038567 9.763758 -0.000214 0.000349 -0.002512 -0.001369 -0.229040 8.070845 0.000002 -0.000015 0.0 0.0 0.000222 -3.346448 6.511637 -0.823895 0.0 -0.000001 0.0 -3.126685 -0.000001 0.0 -0.057196 -0.041101 -0.099024 -9.763758 -0.000190 0.000329 0.002336 -0.001346 0.166264 -8.070836 0.0 -0.000017 0.0 0.0 -0.000215 -5.071094 -1.617554 1.323620 -0.307828 -1.195216 -0.033031 1.914765 -19.327592 -0.030973 -0.004565 2.074203 -0.073869 0.000008 -18.444608 -1.136690 -0.014754 -1.089693 -0.044772 0.0 -2.387277 4.407706 0.0 0.0 0.0 -0.409762 -0.004094 4.149558 0.0 0.0 0.0 4.990739 -1.614089 1.329010 -0.306592 -0.127235 0.032289 -1.794003 -19.332754 -0.035147 -0.006912 -0.168157 -0.112607 0.054245 -18.442837 -1.137407 -0.014687 0.084704 -0.071120 0.0 -2.386609 4.407707 0.0 0.0 0.0 0.325589 0.034291 4.149086 0.0 0.0 0.0 
-0.067050 41.930500 0.047571 0.454901 0.701827 0.321051 0.0 3.309949 0.0 0.049367 0.033623 0.027862 0.0 8.066010 -0.605038 0.171818 0.141024 0.250988 0.0 9.885890 -0.374283 0.0 -0.000215 0.0 0.000002 2.977547 0.0 0.0 0.0 0.0 0.0 3.11023 0.0 0.0 0.0 0.0 -1.41732 3.11023 3.876606 0.0 0.0 0.0 1.41732 3.11023 3.876409 0.0 0.0 0.0 3.333260 6.511640 -0.823896 0.0 0.0 0.0 3.110227 -0.000001 0.0 -0.132627 0.076668 0.139374 9.763752 -0.000203 0.000344 -0.002491 -0.001411 -0.886288 8.070849 0.0 -0.000017 0.0 0.0 0.000228 -3.346447 6.511638 -0.823896 0.0 0.0 0.0 -3.126685 -0.000003 0.0 -0.218436 -0.164227 -0.377129 -9.763763 -0.000206 0.000351 0.002349 -0.001335 0.640373 -8.070843 0.000002 -0.000016 0.0 0.0 -0.000231 -5.071085 -1.617555 1.323618 -0.634888 -2.999090 -0.062206 1.914755 -19.327582 -0.030611 -0.010570 5.396264 -0.169792 0.000012 -18.444585 -1.136582 -0.053321 -2.848349 -0.096519 0.0 -2.387279 4.407708 0.0 0.0 0.0 -0.409762 -0.004094 4.149558 0.0 0.0 0.0 4.990732 -1.614087 1.329010 -0.627931 -1.147767 0.138250 -1.793983 -19.332763 -0.034868 -0.017677 1.493252 -0.285631 0.054262 -18.442822 -1.137414 -0.053124 -0.796503 -0.179170 0.0 -2.386607 4.407704 0.0 0.0 0.0 0.325589 0.034291 4.149086 0.0 0.0 0.0 
-0.131330 41.829845 0.097377 0.728679 1.120141 0.510311 0.0 3.309951 0.0 0.108935 0.074204 0.061402 -0.000001 8.066010 -0.605037 0.379156 0.311172 0.552719 0.000003 9.886043 -0.374285 0.0 -0.000181 0.0 -0.000002 2.977480 0.0 0.0 0.0 0.0 0.0 3.11023 0.0 0.0 0.0 0.0 -1.41732 3.11023 3.876606 0.0 0.0 0.0 1.41732 3.11023 3.876409 0.0 0.0 0.0 3.333261 6.511639 -0.823896 0.0 0.0 0.0 3.110222 0.0 0.0 -0.296009 0.166686 0.302749 9.763764 -0.000211 0.000358 -0.002619 -0.001471 -1.950730 8.070838 0.0 -0.000019 0.0 0.0 0.000245 -3.346448 6.511638 -0.823896 0.0 0.0 0.0 -3.126682 0.0 0.0 -0.481844 -0.360287 -0.827313 -9.763753 -0.000204 0.000361 0.002140 -0.001300 1.407986 -8.070842 0.000004 -0.000019 0.0 0.0 -0.000261 -5.071089 -1.617557 1.323619 -0.979918 -5.104676 -0.075767 1.914805 -19.327588 -0.031039 -0.018392 9.333215 -0.293897 0.000005 -18.444606 -1.136468 -0.109258 -4.947888 -0.162328 0.0 -2.387278 4.407706 0.0 0.0 0.0 -0.409762 -0.004094 4.149558 0.0 0.0 0.0 4.990736 -1.614089 1.329013 -0.956730 -2.718078 0.299291 -1.793981 -19.332740 -0.034996 -0.031918 4.278031 -0.507185 0.054258 -18.442824 -1.137337 -0.107506 -2.278667 -0.317856 0.0 -2.386608 4.407705 0.0 0.0 0.0 0.325589 0.034291 4.149086 0.0 0.0 0.0 
